<svg xmlns="http://www.w3.org/2000/svg" viewBox="0 0 180 180" fill="none">
  <!-- Background with professional gradient -->
  <rect width="180" height="180" rx="44" fill="url(#bgGradient)" />
  
  <!-- CV Letter Icon with modern design -->
  <g transform="translate(36, 36)">
    <!-- Document background -->
    <rect x="8" y="6" width="72" height="96" rx="8" fill="white" fill-opacity="0.95" />
    
    <!-- Document lines (CV content) -->
    <rect x="20" y="20" width="40" height="5" rx="2.5" fill="url(#gradient)" />
    <rect x="20" y="30" width="48" height="4" rx="2" fill="url(#gradient)" fill-opacity="0.7" />
    <rect x="20" y="38" width="32" height="4" rx="2" fill="url(#gradient)" fill-opacity="0.7" />
    
    <!-- Letter/envelope element -->
    <rect x="20" y="56" width="48" height="32" rx="5" fill="url(#gradient)" fill-opacity="0.15" stroke="url(#gradient)" stroke-width="3" />
    <path d="M20 62 L44 74 L68 62" stroke="url(#gradient)" stroke-width="3" fill="none" />
    
    <!-- AI spark/star element -->
    <circle cx="68" cy="24" r="8" fill="url(#accentGradient)" />
    <path d="M68 16 L69.5 22 L75 22 L71 26 L72.5 32 L68 28 L63.5 32 L65 26 L61 22 L66.5 22 Z" fill="white" />
  </g>
  
  <defs>
    <!-- Background gradient -->
    <linearGradient id="bgGradient" x1="0" x2="180" y1="0" y2="180" gradientUnits="userSpaceOnUse">
      <stop stop-color="#1e293b" />
      <stop offset="1" stop-color="#0f172a" />
    </linearGradient>
    
    <!-- Main gradient -->
    <linearGradient id="gradient" x1="0" x2="108" y1="0" y2="108" gradientUnits="userSpaceOnUse">
      <stop stop-color="#3b82f6" />
      <stop offset="0.5" stop-color="#1d4ed8" />
      <stop offset="1" stop-color="#1e40af" />
    </linearGradient>
    
    <!-- Accent gradient for AI element -->
    <linearGradient id="accentGradient" x1="0" x2="16" y1="0" y2="16" gradientUnits="userSpaceOnUse">
      <stop stop-color="#f59e0b" />
      <stop offset="1" stop-color="#d97706" />
    </linearGradient>
  </defs>
</svg>